HIERARCHY
ROOT Hips
{
	OFFSET 0.000000 0.000000 0.000000 
	CHANNELS 6 Xposition Yposition Zposition Yrotation Zrotation Xrotation 
	JOINT Lumbar
	{
		OFFSET 0.000000 0.000000 0.000000 
		CHANNELS 3 Zrotation Xrotation Yrotation
		JOINT Neck
		{
			OFFSET 0.000000 0.445665 0.000000 
			CHANNELS 3 Zrotation Xrotation Yrotation
			End Site
			{
				OFFSET 0.000000 0.227535 0.000000 
			}
		}
		JOINT RightShoulder
		{
			OFFSET 0.019635 0.377685 0.194865 
			CHANNELS 3 Zrotation Xrotation Yrotation
			JOINT RightElbow
			{
				OFFSET 0.000000 -0.243375 0.000000 
				CHANNELS 2 Zrotation Yrotation
				JOINT RightWrist
				{
					OFFSET 0.000000 -0.264825 0.000000 
					CHANNELS 2 Zrotation Xrotation
					End Site
					{
						OFFSET 0.006600 -0.176220 0.000990 
					}
				}
			}
		}
		JOINT LeftShoulder
		{
			OFFSET 0.019635 0.377685 -0.194865 
			CHANNELS 3 Zrotation Xrotation Yrotation
			JOINT LeftElbow
			{
				OFFSET 0.000000 -0.243375 0.000000 
				CHANNELS 2 Zrotation Yrotation
				JOINT LeftWrist
				{
					OFFSET 0.000000 -0.264825 0.000000 
					CHANNELS 2 Zrotation Xrotation
					End Site
					{
						OFFSET 0.006600 -0.176220 -0.000990 
					}
				}
			}
		}
	}
	JOINT RightHip
	{
		OFFSET 0.052140 -0.069960 0.075570 
		CHANNELS 3 Zrotation Xrotation Yrotation
		JOINT RightKnee
		{
			OFFSET 0.000000 -0.402270 0.000000 
			CHANNELS 1 Zrotation
			JOINT RightAnkle
			{
				OFFSET 0.000000 -0.404085 0.000000 
				CHANNELS 3 Zrotation Xrotation Yrotation
				End Site
				{
					OFFSET 0.204105 -0.089430 0.008415 
				}
			}
		}
	}
	JOINT LeftHip
	{
		OFFSET 0.052140 -0.069960 -0.075570 
		CHANNELS 3 Zrotation Xrotation Yrotation
		JOINT LeftKnee
		{
			OFFSET 0.000000 -0.402270 0.000000 
			CHANNELS 1 Zrotation
			JOINT LeftAnkle
			{
				OFFSET 0.000000 -0.404085 0.000000 
				CHANNELS 3 Zrotation Xrotation Yrotation
				End Site
				{
					OFFSET 0.204105 -0.089430 -0.008415 
				}
			}
		}
	}
}
MOTION
Frames: 14
Frame Time: 0.02
-2.52951 0.00955 0.14953 898.89607 -23.89209 0.05567 30.66857 1.10693 -9.27268 -12.3984 7.90276 -2.11994 4.1218 -12.48805 2.8426 119.95645 85.96016 -0.28935 3.53081 -19.45848 7.37184 -0.72957 114.26141 -85.57406 2.1126 -0.09554 1.21879 -2.35619 10.68959 0.47733 3.08876 -15.82594 -8.79572 1.40862 2.85811 0.32185 0.48745 4.51146 8.31163 5.6246
-2.52951 0.0096 0.14975 898.79148 -23.90513 0.05649 30.76505 1.0746 -9.34928 -12.44043 7.94564 -2.11994 5.85705 -12.11812 4.15738 122.89036 88.31838 0.38476 4.0988 -19.64086 7.21365 -0.53011 114.49056 -89.64235 3.18621 -1.06762 1.25304 -2.38828 10.76256 0.47766 3.19589 -15.5624 -8.73379 1.39659 2.83625 0.38316 0.48733 4.49146 8.42838 5.6177
-2.52948 0.00966 0.14992 898.67424 -23.91535 0.04208 30.8547 1.02772 -9.3875 -12.45549 8.05938 -2.11994 7.83615 -11.68485 5.50518 125.46657 91.10589 1.18214 4.54967 -19.7664 6.99491 -0.34474 114.71499 -94.766 4.51663 -2.30396 1.28747 -2.40906 10.86135 0.47806 3.32423 -15.2296 -8.70669 1.3808 2.82708 0.4646 0.48723 4.47315 8.57543 5.59453
-2.52946 0.00972 0.15012 898.56326 -23.9259 0.03371 30.94623 0.98782 -9.44134 -12.48028 8.14252 -2.11994 9.69412 -11.27548 6.82519 128.14124 93.58773 1.9132 4.95651 -19.91204 6.80753 -0.16051 114.94025 -99.25548 5.70739 -3.38722 1.32063 -2.43434 10.94826 0.47841 3.44064 -14.93646 -8.66245 1.36599 2.8126 0.53725 0.48712 4.45526 8.70541 5.57924
-2.52945 0.00978 0.1503 898.44987 -23.94161 0.02889 31.04329 0.94605 -9.50368 -12.51526 8.22079 -2.11994 11.61256 -10.88354 8.20425 131.09133 96.53682 2.69032 5.76745 -20.08324 6.60315 0.05751 115.17187 -104.39439 6.99816 -4.62053 1.36036 -2.46202 11.03554 0.47881 3.56777 -14.60904 -8.6223 1.35565 2.79655 0.60778 0.48704 4.43246 8.85079 5.56246
-2.52941 0.00984 0.15052 898.33883 -23.9454 0.01324 31.12692 0.90491 -9.53864 -12.52291 8.32506 -2.11994 13.45392 -10.44219 9.46507 133.38135 98.61999 3.40009 5.72318 -20.18715 6.42016 0.20062 115.38868 -108.4391 8.14053 -5.60002 1.38578 -2.48229 11.1283 0.47914 3.67703 -14.33682 -8.58282 1.33457 2.78648 0.68752 0.4869 4.42034 8.97039 5.54476
-2.52934 0.00991 0.15083 898.23491 -23.91776 -0.02986 31.1769 0.86827 -9.51057 -12.46044 8.48669 -2.11994 15.05328 -9.87163 10.40482 133.93038 98.13771 3.88953 3.19943 -20.11922 6.31042 0.14567 115.56702 -109.11934 8.80811 -5.81278 1.37241 -2.48298 11.22998 0.47926 3.73348 -14.23062 -8.53283 1.2848 2.79179 0.78985 0.4866 4.43631 9.01559 5.5277
-2.52925 0.00998 0.15118 898.1346 -23.87793 -0.08302 31.21324 0.83294 -9.45575 -12.37169 8.67115 -2.11994 16.5585 -9.25572 11.22114 133.82758 96.78067 4.30709 -0.15479 -19.98532 6.22456 0.01463 115.73017 -108.67582 9.31707 -5.75984 1.34426 -2.47696 11.33648 0.4793 3.7705 -14.1835 -8.48357 1.22421 2.80231 0.9001 0.48624 4.46319 9.03281 5.51024
-2.52917 0.01005 0.15153 898.03379 -23.84299 -0.13087 31.25468 0.79755 -9.4108 -12.29585 8.84316 -2.11994 18.08539 -8.66596 12.0849 134.02658 95.86921 4.76014 -3.03336 -19.88137 6.12822 -0.0853 115.89947 -108.80347 9.90002 -5.82756 1.32219 -2.47524 11.44049 0.47938 3.81548 -14.1107 -8.43617 1.16824 2.8091 1.00591 0.48592 4.48562 9.05999 5.4935
-2.52909 0.01012 0.15182 897.92629 -23.81066 -0.1827 31.30057 0.75938 -9.37355 -12.21497 9.02692 -2.11994 19.71209 -8.04935 12.98741 134.19066 94.77201 5.20646 -6.32968 -19.77557 6.02798 -0.17108 116.07223 -108.71827 10.48534 -5.90433 1.30291 -2.46781 11.54589 0.47949 3.86598 -14.0281 -8.37916 1.1131 2.82197 1.11744 0.48556 4.5057 9.10009 5.4743
-2.52899 0.01018 0.15224 897.83556 -23.77013 -0.22802 31.33399 0.72752 -9.31519 -12.13874 9.1901 -2.11994 21.10291 -7.48022 13.77821 134.27611 93.84585 5.64708 -8.95282 -19.65871 5.9426 -0.30418 116.23366 -108.78885 11.02296 -5.89657 1.27423 -2.47086 11.65016 0.47948 3.89871 -13.98391 -8.34381 1.0541 2.82339 1.2168 0.48526 4.53357 9.10598 5.45988
-2.52886 0.0102 0.15297 897.77568 -23.70888 -0.25617 31.33649 0.71278 -9.19861 -12.08168 9.29551 -2.11994 21.88373 -7.04095 14.30068 134.31532 93.62038 6.0981 -9.50206 -19.52728 5.89056 -0.5499 116.37243 -109.61842 11.48121 -5.71052 1.22351 -2.50425 11.74367 0.47932 3.89699 -14.00833 -8.35304 0.98362 2.79099 1.29536 0.48508 4.57736 9.02687 5.46292
-2.5287 0.01021 0.15383 897.73605 -23.6399 -0.27667 31.32683 0.70437 -9.06325 -12.03039 9.37811 -2.11994 22.42562 -6.65369 14.71279 134.29749 93.58925 6.54409 -9.3463 -19.3872 5.85348 -0.84053 116.4994 -110.62819 11.89325 -5.44886 1.16363 -2.5484 11.83821 0.47901 3.8749 -14.07591 -8.3877 0.9103 2.74724 1.35764 0.48495 4.62913 8.91403 5.47023
-2.52854 0.01021 0.15464 897.69585 -23.57529 -0.29854 31.32277 0.69324 -8.9407 -11.97665 9.46785 -2.11994 23.06377 -6.251 15.16896 134.30015 93.46149 6.98556 -9.52112 -19.25164 5.81079 -1.11008 116.62858 -111.51476 12.31604 -5.22715 1.10795 -2.58799 11.93478 0.47871 3.85711 -14.13678 -8.41908 0.84057 2.70896 1.41874 0.48482 4.67916 8.81431 5.47272
